<?xml version="1.0" standalone="no"?>
<!DOCTYPE svg PUBLIC "-//W3C//DTD SVG 20010904//EN"
 "http://www.w3.org/TR/2001/REC-SVG-20010904/DTD/svg10.dtd">
<svg version="1.0" xmlns="http://www.w3.org/2000/svg"
 width="35px" height="35px" viewBox="0 0 35.000000 35.000000"
 preserveAspectRatio="xMidYMid meet">
	<g>
		<circle fill="#FFFFFF" cx="17" cy="17" r="17"/>
<g transform="translate(0.000000,35.000000) scale(0.100000,-0.100000)"
fill="#000000" stroke="none">
<path d="M75 275 c-22 -21 -25 -33 -25 -100 0 -67 3 -79 25 -100 21 -22 33
-25 100 -25 67 0 79 3 100 25 22 21 25 33 25 100 0 67 -3 79 -25 100 -21 22
-33 25 -100 25 -67 0 -79 -3 -100 -25z m185 -15 c29 -29 29 -141 0 -170 -16
-16 -33 -20 -85 -20 -89 0 -105 16 -105 105 0 89 16 105 105 105 52 0 69 -4
85 -20z"/>
<path d="M235 249 c-10 -15 3 -25 16 -12 7 7 7 13 1 17 -6 3 -14 1 -17 -5z"/>
<path d="M132 217 c-28 -30 -28 -58 1 -85 30 -28 58 -28 85 1 28 30 28 58 -1
85 -30 28 -58 28 -85 -1z m80 -26 c9 -40 -13 -62 -53 -53 -18 3 -27 27 -21 54
6 30 68 30 74 -1z"/>
</g>
</g>
</svg>
