<?xml version="1.0" standalone="no"?>
<!DOCTYPE svg PUBLIC "-//W3C//DTD SVG 20010904//EN"
 "http://www.w3.org/TR/2001/REC-SVG-20010904/DTD/svg10.dtd">
<svg version="1.0" xmlns="http://www.w3.org/2000/svg"
 width="35px" height="35px" viewBox="0 0 35.000000 35.000000"
 preserveAspectRatio="xMidYMid meet">
	<g>
		<circle fill="#FFFFFF" cx="17" cy="17" r="17"/>
<g transform="translate(0.000000,35.000000) scale(0.100000,-0.100000)"
fill="#000000" stroke="none">
<path d="M112 280 c-46 -28 -68 -83 -54 -134 6 -25 7 -48 1 -64 -12 -31 -10
-33 26 -24 16 5 45 4 64 -1 71 -19 151 44 151 118 0 63 -63 125 -127 125 -15
0 -43 -9 -61 -20z m134 -31 c76 -71 -4 -206 -100 -171 -18 7 -41 9 -51 6 -14
-6 -16 -3 -11 13 4 11 2 33 -4 48 -25 65 39 141 109 131 19 -3 44 -15 57 -27z"/>
<path d="M115 220 c-11 -17 4 -48 36 -75 32 -26 73 -33 85 -14 9 15 -16 30
-39 23 -26 -8 -47 14 -47 47 0 29 -22 40 -35 19z"/>
</g></g>
</svg>
